<svg width="33" height="32" viewBox="0 0 33 32" fill="none" xmlns="http://www.w3.org/2000/svg">
<path d="M16.0395 2.66675C14.2886 2.66675 12.5547 3.01162 10.9371 3.68169C9.31939 4.35175 7.84953 5.33388 6.61142 6.57199C4.11093 9.07248 2.70618 12.4639 2.70618 16.0001C2.70618 21.8934 6.53284 26.8934 11.8262 28.6667C12.4928 28.7734 12.7062 28.3601 12.7062 28.0001V25.7467C9.01284 26.5467 8.22618 23.9601 8.22618 23.9601C7.61284 22.4134 6.74618 22.0001 6.74618 22.0001C5.53284 21.1734 6.83951 21.2001 6.83951 21.2001C8.17284 21.2934 8.87951 22.5734 8.87951 22.5734C10.0395 24.6001 11.9995 24.0001 12.7595 23.6801C12.8795 22.8134 13.2262 22.2267 13.5995 21.8934C10.6395 21.5601 7.53284 20.4134 7.53284 15.3334C7.53284 13.8534 8.03951 12.6667 8.90618 11.7201C8.77284 11.3867 8.30618 10.0001 9.03951 8.20008C9.03951 8.20008 10.1595 7.84008 12.7062 9.56008C13.7595 9.26675 14.9062 9.12008 16.0395 9.12008C17.1728 9.12008 18.3195 9.26675 19.3728 9.56008C21.9195 7.84008 23.0395 8.20008 23.0395 8.20008C23.7728 10.0001 23.3062 11.3867 23.1728 11.7201C24.0395 12.6667 24.5462 13.8534 24.5462 15.3334C24.5462 20.4267 21.4262 21.5467 18.4528 21.8801C18.9328 22.2934 19.3728 23.1067 19.3728 24.3467V28.0001C19.3728 28.3601 19.5862 28.7867 20.2662 28.6667C25.5595 26.8801 29.3728 21.8934 29.3728 16.0001C29.3728 14.2491 29.028 12.5153 28.3579 10.8976C27.6878 9.27996 26.7057 7.81011 25.4676 6.57199C24.2295 5.33388 22.7596 4.35175 21.142 3.68169C19.5243 3.01162 17.7905 2.66675 16.0395 2.66675Z" fill="white"/>
</svg>
