<svg width="33" height="32" viewBox="0 0 33 32" fill="none" xmlns="http://www.w3.org/2000/svg">
<path d="M10.4396 2.66675H21.6396C25.9063 2.66675 29.373 6.13341 29.373 10.4001V21.6001C29.373 23.6511 28.5582 25.6181 27.1079 27.0684C25.6576 28.5187 23.6906 29.3334 21.6396 29.3334H10.4396C6.17297 29.3334 2.7063 25.8667 2.7063 21.6001V10.4001C2.7063 8.34907 3.52106 6.38207 4.97134 4.93179C6.42162 3.48151 8.38862 2.66675 10.4396 2.66675ZM10.173 5.33341C8.89993 5.33341 7.67903 5.83913 6.77885 6.7393C5.87868 7.63948 5.37297 8.86037 5.37297 10.1334V21.8667C5.37297 24.5201 7.51963 26.6667 10.173 26.6667H21.9063C23.1793 26.6667 24.4002 26.161 25.3004 25.2609C26.2006 24.3607 26.7063 23.1398 26.7063 21.8667V10.1334C26.7063 7.48008 24.5596 5.33341 21.9063 5.33341H10.173ZM23.0396 7.33341C23.4817 7.33341 23.9056 7.50901 24.2181 7.82157C24.5307 8.13413 24.7063 8.55805 24.7063 9.00008C24.7063 9.44211 24.5307 9.86603 24.2181 10.1786C23.9056 10.4912 23.4817 10.6667 23.0396 10.6667C22.5976 10.6667 22.1737 10.4912 21.8611 10.1786C21.5486 9.86603 21.373 9.44211 21.373 9.00008C21.373 8.55805 21.5486 8.13413 21.8611 7.82157C22.1737 7.50901 22.5976 7.33341 23.0396 7.33341ZM16.0396 9.33341C17.8077 9.33341 19.5034 10.0358 20.7537 11.286C22.0039 12.5363 22.7063 14.232 22.7063 16.0001C22.7063 17.7682 22.0039 19.4639 20.7537 20.7141C19.5034 21.9644 17.8077 22.6667 16.0396 22.6667C14.2715 22.6667 12.5758 21.9644 11.3256 20.7141C10.0753 19.4639 9.37296 17.7682 9.37296 16.0001C9.37296 14.232 10.0753 12.5363 11.3256 11.286C12.5758 10.0358 14.2715 9.33341 16.0396 9.33341ZM16.0396 12.0001C14.9788 12.0001 13.9613 12.4215 13.2112 13.1717C12.4611 13.9218 12.0396 14.9392 12.0396 16.0001C12.0396 17.0609 12.4611 18.0784 13.2112 18.8285C13.9613 19.5787 14.9788 20.0001 16.0396 20.0001C17.1005 20.0001 18.1179 19.5787 18.8681 18.8285C19.6182 18.0784 20.0396 17.0609 20.0396 16.0001C20.0396 14.9392 19.6182 13.9218 18.8681 13.1717C18.1179 12.4215 17.1005 12.0001 16.0396 12.0001Z" fill="white"/>
</svg>
